<?xml version="1.0" encoding="utf-8"?>
<!-- Generator: Adobe Illustrator 25.4.1, SVG Export Plug-In . SVG Version: 6.00 Build 0)  -->
<svg version="1.1" id="Capa_1" xmlns="http://www.w3.org/2000/svg" xmlns:xlink="http://www.w3.org/1999/xlink" x="0px" y="0px"
	 viewBox="0 0 364.5 364.5" style="enable-background:new 0 0 364.5 364.5;" xml:space="preserve">
<style type="text/css">
	.st0{fill:#3B82F6;}
	.st1{fill:#FFFFFF;}
</style>
<circle class="st0" cx="182.2" cy="182.2" r="182.2"/>
<g>
	<path class="st1" d="M282.2,254.1c-1.1,3.2-2.8,5.8-6,7.3c-0.4,0.2-0.6,1-0.6,1.6c-0.1,3,0,6,0,9c-0.1,5.9-4.3,10.2-10.3,10.2
		c-7.6,0-15.2,0-22.8,0c-5.9,0-10.2-4.3-10.2-10.3c0-3.2,0-6.3,0-9.6c-33.4,0-66.5,0-100,0c0,2.8,0,5.7,0,8.5
		c0,7.4-3.9,11.3-11.3,11.4c-7.1,0-14.2,0-21.3,0c-6.6,0-10.7-4.2-10.8-10.7c0-2.9,0.1-5.7-0.1-8.6c0-0.6-0.5-1.4-1-1.7
		c-3.8-2.1-5.6-5.3-5.6-9.6c0-14.2,0-28.4,0-42.6c0-3.3,1.1-5.9,3.4-8.2c3.4-3.4,6.8-6.8,10.2-10.2c0.4-0.4,0.9-0.9,1.6-1.7
		c-2,0-3.6,0-5.2,0c-5.7-0.1-10.1-4.5-10-10c0-5.5,4.4-9.8,10-9.9c1.7,0,3.4,0.1,5.1,0c3.4-0.2,6.4,0.7,9.1,3.4
		c0.3-0.8,0.6-1.4,0.8-2c1.8-5.4,3.6-10.9,5.4-16.3c2.5-7.3,8.3-11.7,16-11.7c35.7-0.1,71.5-0.1,107.2,0c7.7,0,13.5,4.3,16,11.7
		c1.8,5.3,3.6,10.7,5.4,16.1c0.2,0.7,0.5,1.3,0.8,2.2c4.8-4.8,10.6-3.4,16.2-3.1c3.6,0.2,6,2.8,7.4,6.2c0.2,0.5,0.4,0.9,0.6,1.4
		c0,1.3,0,2.6,0,3.9c-2.2,7.6-8,8.9-15.4,8.1c3.8,3.8,7.1,7.2,10.5,10.4c2.2,2.1,4.1,4.3,5,7.3C282.2,222.3,282.2,238.2,282.2,254.1
		z M182.3,255.6c29.6,0,59.1,0,88.7,0c3.6,0,4.7-1.1,4.7-4.7c0-13.8,0-27.6,0-41.4c0-1.8-0.5-3.1-1.8-4.3
		c-5.1-5-10.1-10.1-15.2-15.1c-0.7-0.7-1.9-1.1-2.9-1.1c-49-0.1-98-0.1-147,0c-1,0-2.2,0.5-2.8,1.2c-5.1,4.9-10,10-15.1,15
		c-1.3,1.3-1.9,2.7-1.9,4.5c0.1,13.7,0,27.3,0,41c0,4.1,0.9,5,5.1,5C123.4,255.6,152.8,255.6,182.3,255.6z M254.2,182.2
		c-0.2-0.7-0.3-1.2-0.5-1.7c-2.7-8.1-5.4-16.2-8.1-24.2c-1.7-5-5-7.4-10.2-7.4c-35.4,0-70.8,0-106.2,0c-5.3,0-8.6,2.4-10.3,7.4
		c-2.7,8.1-5.4,16.1-8.1,24.2c-0.2,0.5-0.3,1-0.4,1.7C158.4,182.2,206.1,182.2,254.2,182.2z M125.6,262.4c-10.1,0-20,0-30,0
		c0,3.3-0.1,6.5,0,9.7c0.1,2.1,1.4,3.4,3.5,3.4c7.7,0,15.3,0,23,0c2.1,0,3.4-1.3,3.5-3.4C125.6,268.9,125.6,265.7,125.6,262.4z
		 M238.9,262.3c0,1.1,0,1.9,0,2.8c0,2.3-0.1,4.7,0,7c0.1,2.1,1.4,3.4,3.5,3.4c7.7,0,15.3,0,23,0c1.9,0,3.3-1,3.4-2.9
		c0.2-3.4,0.1-6.8,0.1-10.3C258.8,262.3,249,262.3,238.9,262.3z M102.2,182.2c0-1.3,0-2.3,0-3.4c-0.1-1.9-1.3-3.2-3.2-3.2
		c-2.3-0.1-4.6-0.1-6.8,0c-1.9,0.1-3.2,1.5-3.2,3.2c0,1.7,1.3,3.3,3.2,3.3C95.4,182.3,98.7,182.2,102.2,182.2z M262.3,182.2
		c3.5,0,6.9,0.1,10.2,0c1.8-0.1,3.2-1.6,3.1-3.3c0-1.7-1.4-3.2-3.2-3.2c-1.9-0.1-3.8,0-5.7,0c-3.4,0-4.4,1-4.4,4.4
		C262.3,180.7,262.3,181.3,262.3,182.2z"/>
	<path class="st1" d="M157.6,82.3c3.1,1.2,5.8,2.9,7.2,6.1c0.1,0.3,0.7,0.5,1.1,0.5c0.8,0.1,1.6,0.1,2.3,0c3.6-0.2,6.7,0.9,9,3.7
		c1.9,2.3,4.2,3,7.2,3c18-0.1,36.1,0,54.1-0.1c2.5,0,4.6,0.6,6.5,2.1c2.4,1.9,4.9,3.7,7.3,5.5c4.2,3.2,4.3,8.1,0.2,11.3
		c-2.7,2.1-5.4,4.3-8.3,6.2c-1.2,0.8-2.9,1-4.3,1.5c-0.1,0-0.3,0-0.4,0c-5.4,0.4-10.6,0.3-13.8-5.7c-3.1,4.4-6.8,5.9-11.7,5.9
		c-4.9,0-8.8-1.3-11.8-5.9c-1.1,1.3-1.9,2.4-2.9,3.4c-1.5,1.6-3.4,2.4-5.6,2.3c-3.6,0-7.3,0-10.9,0c-1.7,0-3.1,0.4-4.2,1.7
		c-3.1,3.9-7.1,5.5-12,5c-1.1-0.1-1.7,0.3-2.3,1.3c-1.8,3.4-4.8,5.3-8.7,5.3c-10.2,0.1-20.4,0-30.7,0c-2.9,0-5.3-1.1-7.3-3.2
		c-1.9-1.9-3.8-3.8-5.7-5.7c-2.1-2.1-3.1-4.6-3.1-7.5c0-6.8,0-13.7,0-20.5c0-2.9,1-5.5,3.1-7.5c1.9-1.9,3.8-4,5.8-5.8
		c1.5-1.3,3.4-2.1,5-3.1C134.5,82.3,146,82.3,157.6,82.3z M158.9,108.9c0-5.3,0-10.5,0-15.8c0-3.1-1.1-4.2-4.3-4.2
		c-9.6,0-19.1-0.1-28.7,0.1c-1.3,0-2.7,0.7-3.8,1.5c-1.8,1.4-3.2,3.2-4.9,4.8c-1.2,1.2-1.7,2.5-1.7,4.2c0,6.3,0.1,12.6,0,18.9
		c0,1.8,0.5,3.1,1.8,4.3c1.6,1.4,3.1,3,4.6,4.6c1.1,1.2,2.4,1.7,4,1.7c9.6,0,19.3,0,28.9,0c3,0,4.1-1.1,4.1-4.1
		C158.9,119.5,158.9,114.2,158.9,108.9z M165.7,122c3,0.4,5.6,0.5,7.6-2.2c2.6-3.3,6.2-4.6,10.4-4.3c2.5,0.1,5.1-0.1,7.6,0.1
		c2.1,0.2,3.6-0.6,5.1-2.1c4.2-4.4,7.5-4.3,11.8-0.1c0.7,0.7,1.5,2,2.3,2c3.3,0,7,1.4,9.6-2.3c1.7-2.3,4.3-3.5,7.1-2.5
		c1.9,0.7,3.4,2.2,5,3.5c1.5,1.3,6.7,2.2,8.4,1.1c2.8-1.9,5.5-4.1,8.4-6.3c-2.6-2-5-3.9-7.5-5.6c-0.9-0.6-2.1-1-3.2-1.1
		c-18-0.1-36.1-0.1-54.1,0c-4.6,0-8.3-1.1-11.2-4.7c-2-2.5-4.6-2.2-7.2-1.9C165.7,104.6,165.7,113.3,165.7,122z"/>
	<path class="st1" d="M182.2,208.9c11.8,0,23.5,0,35.3,0c3.8,0,6.5,1.7,7.6,4.7c1.1,3,0.4,5.7-2,7.8c-3.6,3.2-7.3,6.3-11.1,9.2
		c-1.3,0.9-3.1,1.6-4.7,1.6c-16.7,0.1-33.4,0.1-50.1,0c-1.8,0-3.8-0.9-5.3-2c-3.5-2.5-6.7-5.4-9.9-8.2c-2.8-2.4-3.7-5.3-2.6-8.3
		c1.1-3,3.7-4.7,7.3-4.7C158.5,208.8,170.4,208.9,182.2,208.9z M219,216.2c-0.1-0.1-0.1-0.3-0.2-0.4c-24.4,0-48.7,0-73.6,0
		c0.8,0.8,1.3,1.3,1.7,1.6c2.8,2.4,5.7,4.8,8.6,7.1c0.8,0.6,1.9,1.1,2.9,1.1c13.5,0.1,26.9,0.1,40.4,0c3,0,6.2,0.7,8.9-0.3
		c2.7-1,4.7-3.6,7-5.5C216.2,218.6,217.6,217.4,219,216.2z"/>
	<path class="st1" d="M249.1,232.2c-4.2,0-8.3,0-12.5,0c-3.6,0-6.2-1.8-7.3-4.8c-1-3-0.1-5.9,2.6-8.2c3.3-2.8,6.6-5.5,9.9-8.2
		c1.7-1.5,3.7-2.1,5.9-2.1c4.6,0,9.2,0,13.9,0c4.6,0,7.3,2.8,7.3,7.3c0,3,0,6,0,9c-0.1,4.3-2.8,7.1-7.1,7.1
		C257.6,232.2,253.3,232.2,249.1,232.2z M262.1,225.5c0-3.4,0-6.6,0-9.9c-5,0-9.9,0-14.7,0c-0.6,0-1.2,0.5-1.7,0.8
		c-3.1,2.5-6.1,5-9.1,7.6c-0.4,0.3-0.6,0.8-1.2,1.5C244.6,225.5,253.3,225.5,262.1,225.5z"/>
	<path class="st1" d="M115.5,232.2c-4.2,0-8.5,0-12.7,0c-4.4,0-7.2-2.8-7.2-7.2c0-3.1,0-6.1,0-9.2c0.1-4.1,2.8-6.9,6.9-6.9
		c4.9-0.1,9.9-0.2,14.8,0.1c1.7,0.1,3.6,0.8,5,1.8c3.7,2.7,7.1,5.7,10.6,8.7c2.5,2.1,3.3,5.2,2.3,8.1c-1.1,2.9-3.6,4.7-7,4.7
		C123.9,232.2,119.7,232.2,115.5,232.2z M102.4,215.5c0,3.5,0,6.7,0,9.9c8.9,0,17.6,0,26.6,0c-0.4-0.6-0.5-0.9-0.8-1.1
		c-3.2-2.7-6.5-5.4-9.7-8.1c-0.4-0.3-0.9-0.6-1.4-0.6C112.2,215.5,107.4,215.5,102.4,215.5z"/>
	<path class="st1" d="M182.3,242.2c9.4,0,18.9,0,28.3,0c0.7,0,1.4,0,2.1,0.1c1.6,0.3,2.5,1.3,2.7,2.9c0.2,1.7-0.6,2.9-2.2,3.4
		c-0.8,0.2-1.7,0.3-2.5,0.3c-19,0-38,0-57,0c-0.8,0-1.7,0-2.5-0.3c-1.6-0.5-2.4-1.7-2.2-3.4c0.2-1.6,1.1-2.6,2.7-2.9
		c0.7-0.1,1.4-0.1,2.1-0.1C163.3,242.2,172.8,242.2,182.3,242.2z"/>
	<path class="st1" d="M113.9,242.2c3.7,0,7.4,0,11.1,0c2.4,0,3.8,1.2,3.9,3.2c0.1,2.1-1.4,3.5-3.8,3.5c-7.4,0-14.8,0-22.2,0
		c-2.5,0-3.9-1.3-3.9-3.4c0-2,1.4-3.2,3.8-3.2C106.5,242.2,110.2,242.2,113.9,242.2z"/>
	<path class="st1" d="M250.7,242.2c3.6,0,7.3,0,10.9,0c2.5,0,3.9,1.3,3.9,3.3c0,2.1-1.4,3.3-4,3.3c-7.3,0-14.7,0-22,0
		c-2.5,0-3.9-1.3-3.9-3.4c0-2.1,1.4-3.2,4-3.3C243.3,242.2,247,242.2,250.7,242.2z"/>
	<path class="st1" d="M122.2,108.8c0-2.1,0-4.2,0-6.2c0.1-4.3,2.8-7,7.2-7c2,0,4,0,6,0c3.8,0.1,6.6,2.6,6.8,6.4
		c0.2,4.6,0.2,9.2,0,13.8c-0.1,3.8-2.9,6.3-6.7,6.4c-2.1,0.1-4.3,0.1-6.4,0c-4-0.1-6.7-2.7-6.8-6.7
		C122.2,113.2,122.2,111,122.2,108.8z M135.4,115.4c0-4.5,0-8.8,0-13.1c-2.2,0-4.3,0-6.4,0c0,4.4,0,8.7,0,13.1
		C131.2,115.4,133.2,115.4,135.4,115.4z"/>
</g>
</svg>
