<?xml version="1.0" encoding="utf-8"?>
<!-- Generator: Adobe Illustrator 25.4.1, SVG Export Plug-In . SVG Version: 6.00 Build 0)  -->
<svg version="1.1" id="Capa_1" xmlns="http://www.w3.org/2000/svg" xmlns:xlink="http://www.w3.org/1999/xlink" x="0px" y="0px"
	 viewBox="0 0 364.5 364.5" style="enable-background:new 0 0 364.5 364.5;" xml:space="preserve">
<style type="text/css">
	.st0{fill:#DB2777;}
	.st1{fill:#FFFFFF;}
</style>
<circle class="st0" cx="182.2" cy="187" r="182.2"/>
<g>
	<path class="st1" d="M282.2,249.4c-1,3.4-2.6,6.4-5.8,8.2c-4.3,2.5-9.7,2.2-13.4-1.2c-3.9-3.5-7.5-7.3-11.2-10.9
		c-2.8-2.8-5.7-5.6-8.4-8.4c-1-1.1-1.8-1.2-3.1-0.5c-9.8,4.9-20,5.8-30.5,3.1c-16-4.1-29-18.8-31-35.3c-0.4-3-0.5-6.1-0.4-9.1
		c0.2-3,0.8-5.9,1.3-9.1c-0.7,0-1.5,0-2.2,0c-20.8,0-41.7,0-62.5,0c-4.3,0-5.5-1.2-5.5-5.5c0-6.2,0-12.4,0-18.6
		c0-3.4,1.5-4.9,4.9-4.9c5.9,0,11.8,0,18,0c0-0.8,0-1.5,0-2.2c0-5.9,0-11.7,0-17.6c0-3.9,1.3-5.2,5.3-5.2c7,0,14.1,0,21.4,0
		c0-0.8,0-1.5,0-2.1c0-6.7,0-13.4,0-20.1c0-3.6,1.4-5.1,5.1-5.1c8.1,0,16.3,0,24.4,0c3.5,0,5,1.4,5,5c0,5.9,0,11.8,0,17.8
		c0,0.7,0,1.4,0,2.2c4.5,0,8.7,0,12.9,0c2.7,0,5.5,0,8.2,0c4.4,0,5.6,1.3,5.6,5.5c0,5.9,0,11.7,0,17.6c0,0.7,0,1.4,0,1.9
		c4.1,0.7,8.1,1,11.9,2c16,4,28.8,18.5,31.1,34.7c1.3,9,0.1,17.6-4.1,25.8c-0.7,1.3-0.6,2.1,0.5,3.1c5.4,5.2,10.6,10.6,15.9,15.8
		c2.7,2.7,5.3,5.4,6.3,9.1C282.2,246.8,282.2,248.1,282.2,249.4z M256.3,198.2c-0.2-19.4-16-35.2-35.2-35.1
		c-19.4,0.1-35.1,16-35,35.3c0.1,19.4,16,35.1,35.3,35C240.7,233.2,256.4,217.3,256.3,198.2z M193.7,137.8c0,1.3,0,2.5,0,3.7
		c0,4.1,0,8.2-0.2,12.3c-0.1,2-1.8,3.3-3.7,3.4c-1.8,0-3.5-1.3-3.8-3.2c-0.1-0.8-0.2-1.7-0.2-2.5c0-12.1,0-24.2,0-36.3
		c0-0.8-0.1-1.5-0.1-2.3c-6.4,0-12.5,0-18.6,0c0,21.9,0,43.7,0,65.5c4.7,0,9.3-0.1,13.8,0c1.7,0,2.5-0.5,3.3-1.9
		c5.5-9.3,13.5-15.5,23.6-19c1.6-0.5,3.8-0.6,4.5-1.7c0.8-1.2,0.2-3.3,0.2-5c0-4.3,0-8.5,0-12.9
		C206.3,137.8,200.2,137.8,193.7,137.8z M159.1,140.2c-6.3,0-12.5,0-18.6,0c0,12.8,0,25.4,0,38c6.3,0,12.4,0,18.6,0
		C159.1,165.5,159.1,152.9,159.1,140.2z M248.9,231.6c6,6,12.3,12.3,18.6,18.5c0.4,0.4,1,0.9,1.4,0.9c1.3,0,3.1,0.2,3.9-0.6
		c0.9-0.7,1.3-2.5,1.3-3.7c0-0.9-1-1.9-1.7-2.7c-4.6-4.7-9.4-9.4-14-14.1c-1.4-1.4-2.7-2.8-3.9-4
		C252.6,227.9,250.8,229.6,248.9,231.6z M117.5,165.2c0,4.4,0,8.7,0,13c5,0,9.9,0,14.9,0c0-4.4,0-8.7,0-13
		C127.4,165.2,122.6,165.2,117.5,165.2z"/>
	<path class="st1" d="M92.4,282.2c-3.8-1-7.2-2.7-8.7-6.5c-0.9-2.1-1.3-4.5-1.4-6.8c-0.1-54.2-0.1-108.5-0.1-162.7
		c0-3.8,0-7.7,0-11.5c0-7.5,4.9-12.5,12.5-12.5c46.9,0,93.7,0,140.6,0c7.5,0,12.5,5,12.5,12.5c0,10.9,0,21.9,0,32.8
		c0,0.5,0,0.9-0.1,1.4c-0.4,2.2-1.9,3.5-4,3.4c-2.1-0.1-3.5-1.6-3.7-3.8c-0.1-1.8,0-3.6,0-5.5c0-9.2,0-18.5,0-27.7
		c0-3.9-1.4-5.3-5.3-5.3c-46.5,0-93,0-139.4,0c-3.8,0-5.2,1.4-5.2,5.2c0,58,0,116,0,174c0,3.8,1.4,5.2,5.2,5.2
		c46.5,0,93.1,0,139.6,0c3.8,0,5.2-1.4,5.2-5.2c0-5.1,0-10.3,0-15.4c0-2.9,1.5-4.7,3.9-4.7c2.3,0,3.9,1.8,3.9,4.6
		c0,5.5,0.1,10.9,0,16.4c-0.1,6.1-3.5,10.2-9.4,11.8c-0.2,0.1-0.5,0.2-0.7,0.3C189.3,282.2,140.8,282.2,92.4,282.2z"/>
	<path class="st1" d="M161.1,253.3c17.6,0,35.1,0,52.7,0c0.8,0,1.7,0,2.5,0.2c1.7,0.4,3,2,2.9,3.7c-0.1,1.8-1,3.1-2.8,3.6
		c-0.9,0.2-1.8,0.3-2.7,0.3c-35,0-70,0-105,0c-0.3,0-0.5,0-0.8,0c-2.8-0.1-4.6-1.6-4.6-4c0-2.3,1.8-3.8,4.7-3.8
		C125.8,253.3,143.4,253.3,161.1,253.3z"/>
	<path class="st1" d="M128.3,215.2c0,2.3-1.4,4-3.5,4.2c-2.2,0.2-3.9-1-4.2-3.4c-0.3-2.8-2.7-4.7-5.9-4.1c-1.9,0.3-3.5,2-3.5,3.7
		c0,1.6,1.5,3.4,3.4,3.7c1.7,0.3,3.4,0.4,5,0.8c4.9,1.4,8.3,5.4,8.7,10.4c0.4,4.6-2.4,9-7,11.2c-0.7,0.4-1.4,1.2-1.8,2
		c-0.7,1.7-1.9,2.7-3.7,2.6c-1.8,0-3-1-3.7-2.6c-0.3-0.8-1-1.6-1.8-2c-4.1-2.1-6.7-5.3-7-10.1c-0.2-3,2.4-5,5.1-4.1
		c1.7,0.6,2.3,1.9,2.7,3.5c0.6,3.1,3.3,4.6,6.3,3.7c1.7-0.5,3.1-2.2,3-3.7c0-1.6-1.5-3.2-3.4-3.6c-1.7-0.3-3.4-0.4-5-0.8
		c-4.9-1.3-8.4-5.5-8.8-10.3c-0.4-4.7,2.4-9.1,7.1-11.4c0.7-0.3,1.4-1.1,1.7-1.8c0.8-1.6,1.9-2.5,3.6-2.5c1.7,0,2.9,0.9,3.6,2.5
		c0.3,0.7,1,1.5,1.7,1.8C125.4,207.1,128.3,211.1,128.3,215.2z"/>
	<path class="st1" d="M153,209.6c3.7,0,7.4,0,11.1,0c2.9,0,4.7,1.5,4.7,3.8c0.1,2.4-1.8,4-4.8,4c-7.5,0-15,0-22.4,0
		c-2.9,0-4.7-1.5-4.7-3.8c-0.1-2.4,1.8-4,4.8-4C145.5,209.6,149.3,209.6,153,209.6z"/>
	<path class="st1" d="M152.9,231.4c3.8,0,7.5,0,11.3,0c2.8,0,4.7,1.6,4.6,3.9c0,2.3-1.8,3.9-4.7,3.9c-7.5,0-15.1,0-22.6,0
		c-2.8,0-4.6-1.6-4.6-3.9c0-2.3,1.8-3.9,4.7-3.9C145.4,231.4,149.2,231.4,152.9,231.4z"/>
	<path class="st1" d="M243.8,147.8c-2.1,0-3.8-1.9-3.8-3.9c0-2.1,1.9-3.9,3.9-3.8c2,0,3.9,1.9,3.8,3.9
		C247.7,146.1,245.9,147.9,243.8,147.8z"/>
	<path class="st1" d="M179.4,231.5c2.1,0,3.8,1.8,3.8,3.9c0,2.1-1.8,3.9-3.9,3.9c-2.1,0-3.8-1.8-3.8-3.9
		C175.5,233.2,177.3,231.5,179.4,231.5z"/>
	<path class="st1" d="M207.5,171.5c6.4,0,11.7,5.1,11.8,11.6c0.1,6.4-5.3,11.8-11.8,11.8c-6.4,0-11.6-5.3-11.6-11.7
		C195.9,176.8,201.1,171.6,207.5,171.5z M211.4,183.2c0-2.1-1.8-3.8-3.9-3.8c-2.1,0-3.8,1.7-3.8,3.9c0,2.1,1.8,3.8,3.9,3.8
		C209.7,187,211.4,185.2,211.4,183.2z"/>
	<path class="st1" d="M223.2,213.4c0-6.4,5.1-11.7,11.5-11.7c6.5-0.1,11.9,5.2,11.8,11.7c0,6.4-5.3,11.6-11.7,11.7
		C228.4,225,223.2,219.8,223.2,213.4z M234.9,209.5c-2.2,0-3.9,1.6-3.9,3.8c0,2.1,1.6,3.9,3.8,3.9c2.1,0,3.9-1.7,3.9-3.8
		C238.7,211.3,237,209.5,234.9,209.5z"/>
	<path class="st1" d="M229.4,177.9c2.6,0,4.4,2.4,3.7,4.9c-0.2,0.7-0.5,1.3-0.9,1.9c-6.6,11.7-13.2,23.4-19.8,35.1
		c-0.4,0.7-0.8,1.4-1.4,1.9c-1.3,1.2-2.9,1.4-4.5,0.5c-1.5-0.9-2.3-2.7-1.8-4.3c0.2-0.6,0.4-1.2,0.8-1.8c6.7-11.8,13.3-23.6,20-35.5
		C226.4,179.1,227.4,177.9,229.4,177.9z"/>
</g>
</svg>
