<?xml version="1.0" encoding="utf-8"?>
<!-- Generator: Adobe Illustrator 25.4.1, SVG Export Plug-In . SVG Version: 6.00 Build 0)  -->
<svg version="1.1" id="Capa_1" xmlns="http://www.w3.org/2000/svg" xmlns:xlink="http://www.w3.org/1999/xlink" x="0px" y="0px"
	 viewBox="0 0 364.5 364.5" style="enable-background:new 0 0 364.5 364.5;" xml:space="preserve">
<style type="text/css">
	.st0{fill:#4F46E5;}
	.st1{fill:#FFFFFF;}
</style>
<circle class="st0" cx="182.2" cy="182.2" r="182.2"/>
<g>
	<path class="st1" d="M282.2,142.5c0,1.6,0,3.1,0,4.7c-0.1,0.6-0.3,1.2-0.4,1.9c-1,10.3-1.9,20.7-2.9,31
		c-1.3,13.4-2.5,26.9-3.8,40.3c-1,10.3-2.1,20.7-2.9,31c-0.6,7.6-7.4,13.1-15.4,12.2c-12.9-1.4-25.9-2.9-38.8-4.3
		c-17.9-2-35.8-4.1-53.7-6.1c-20.1-2.3-40.2-4.5-60.3-6.7c-5.4-0.6-9.8-3.2-11.3-8.5c-1-3.4-2.4-5.6-5.5-7.3c-3-1.6-4-4.9-5.1-8
		c0-36.9,0-73.8,0-110.7c3.3-9,6.7-11.3,16.5-11.3c43,0,86.1,0,129.1,0c6.8,0,13.7,0,20.5,0c4.7,0,8.5,1.8,11.3,5.5
		c2,2.7,2.6,5.7,2.6,9c0,4.9,0,9.7,0,14.8c2.2,0.3,4.2,0.6,6.3,0.8c5.1,0.4,9.2,2.4,11.8,6.9C281.1,139.1,281.6,140.9,282.2,142.5z
		 M88.9,150.7c0,0.8,0,1.5,0,2.2c0,22,0,43.9,0,65.9c0,5.9,2.3,8.3,8.3,8.3c50.1,0,100.1,0,150.2,0c5.8,0,8.2-2.4,8.2-8.1
		c0-22,0-44,0-66.1c0-0.7,0-1.4,0-2.2C199.9,150.7,144.6,150.7,88.9,150.7z M98.7,233.8c0.7,3.8,2.7,5.7,6.4,6.1
		c4.9,0.6,9.8,1.1,14.7,1.6c13.3,1.5,26.5,3,39.8,4.5c13.3,1.5,26.6,3,39.9,4.5c12.2,1.4,24.3,2.7,36.5,4.1
		c7.2,0.8,14.5,1.7,21.7,2.4c4.3,0.5,7.3-2.1,7.8-6.3c0.3-3,0.6-6.1,0.9-9.1c1.2-13.3,2.5-26.5,3.7-39.8c1.1-11.9,2.2-23.8,3.4-35.7
		c0.7-7.3,1.4-14.6,2.1-21.9c0.3-3.5-1.8-6.7-5-7.1c-2.7-0.4-5.4-0.5-8.3-0.8c0,1,0,1.8,0,2.7c0,26.6,0,53.2-0.1,79.7
		c0,2.5-0.4,5.1-1.4,7.4c-2.5,5.5-7.2,7.7-13.1,7.7c-48.8,0-97.5,0-146.3,0C100.5,233.8,99.7,233.8,98.7,233.8z M255.4,124.2
		c-55.6,0-111,0-166.4,0c0,6.7,0,13.2,0,19.7c55.5,0,110.9,0,166.4,0C255.4,137.3,255.4,130.8,255.4,124.2z M255.4,117.3
		c1-6.5-2.2-10-8.5-10c-50,0.1-100,0.1-150,0.1c-6,0-9.1,3.9-7.7,9.9C144.5,117.3,199.9,117.3,255.4,117.3z"/>
	<path class="st1" d="M215.4,213.8c-8.5,0-16.9,0-25.4,0c-3.5,0-4.5-1-4.6-4.5c0-9.2,0-18.4,0-27.7c0-3.4,1.1-4.4,4.4-4.4
		c17,0,34.1,0,51.1,0c3.4,0,4.4,1.1,4.4,4.4c0,9.3,0,18.6,0,27.8c0,3.3-1,4.3-4.3,4.3C232.6,213.8,224,213.8,215.4,213.8z
		 M192.3,207c15.6,0,31,0,46.4,0c0-7.8,0-15.4,0-23c-15.5,0-30.9,0-46.4,0C192.3,191.7,192.3,199.3,192.3,207z"/>
	<path class="st1" d="M120.5,183.9c-7,0-13.9,0-20.9,0c-1.4,0-2.7-0.2-3.5-1.6c-1.2-2.1-0.1-4.5,2.3-4.9c0.7-0.1,1.4-0.1,2.1-0.1
		c13.4,0,26.8,0,40.2,0c0.5,0,0.9,0,1.4,0c2.2,0.2,3.5,1.4,3.5,3.4c0,2-1.3,3.2-3.6,3.2C134.8,183.9,127.6,183.9,120.5,183.9z"/>
	<path class="st1" d="M112.3,170.6c-4.2,0-8.5,0-12.7,0c-2.6,0-4-1.1-4-3.2c-0.1-2.2,1.4-3.4,4.1-3.4c8.4,0,16.8,0,25.2,0
		c1.7,0,3.3,0.4,3.9,2.3c0.7,2.4-0.7,4.3-3.3,4.3C121,170.6,116.7,170.6,112.3,170.6C112.3,170.6,112.3,170.6,112.3,170.6z"/>
	<path class="st1" d="M152.1,170.6c-4.2,0-8.3,0-12.5,0c-2.6,0-3.9-1.1-4-3.2c0-2.2,1.3-3.4,4-3.4c8.4,0,16.8,0,25.2,0
		c2.6,0,4,1.2,4,3.3c0,2.1-1.4,3.3-4.1,3.4C160.5,170.6,156.3,170.6,152.1,170.6z"/>
	<path class="st1" d="M160.5,183.8c-1.7,0-3.4,0.1-5.1,0c-2-0.1-3.2-1.3-3.2-3.2c0-1.7,1.1-3.2,2.9-3.3c3.6-0.2,7.1-0.2,10.7,0
		c1.9,0.1,3.1,1.6,3,3.4c-0.1,1.9-1.3,3-3.3,3.1c-0.1,0-0.3,0-0.4,0C163.6,183.9,162.1,183.8,160.5,183.8
		C160.5,183.8,160.5,183.8,160.5,183.8z"/>
</g>
</svg>
